# xmcd
#
# Track frame offsets:
#	150
#	18255
#	38525
#	58635
#	78965
#	99270
#
# Disc length: 1592 seconds
#
# Revision: 1
# Processed by: cddbd v1.5PL3 Copyright (c) Steve Scherf et al.
# Submitted via: EasyCDDAExtractor 5.0.7
#
DISCID=35063606
DTITLE=Whitehead Bros.  - "Sex on the Beach" Promo CD Single
DYEAR=1995
DGENRE=Soul
TTITLE0=Sex on the Beach (Ken Spin Remix Edit)
TTITLE1=Sex On The Beach
TTITLE2=Sex on the Beach (Ken Spin Remix Pt.1)
TTITLE3=Sex on the Beach (Dog House Remix Pt. ll)
TTITLE4=Sex on the Beach (Remix Instrumental)
TTITLE5=Sex on the Beach (Remix A Capella)
EXTD=
EXTT0=
EXTT1=
EXTT2=
EXTT3=
EXTT4=
EXTT5=
PLAYORDER=
